<svg data-v-423bf9ae="" xmlns="http://www.w3.org/2000/svg" viewBox="0 0 360 90" class="iconLeft"><!----><!----><!----><g data-v-423bf9ae="" id="f7d327cf-6cb7-40c5-9e7c-eaa7794c17ba" fill="#000000" transform="matrix(4.013377977624823,0,0,4.013377977624823,112.16896607066069,-48.73244226713969)"><path d="M10.78 15.88L10.78 19.45L10.29 19.61L8.40 16.84L6.78 16.84L6.78 26.03L8.26 26.50L7.95 27.13L3.56 27.13L3.56 26.63L4.87 25.59L4.87 16.84L3.29 16.84L1.40 19.61L0.91 19.45L0.91 15.88L1.72 16.13L9.97 16.13L10.78 15.88ZM18.97 26.50L18.66 27.13L15.89 27.13L15.89 25.91L14.31 27.16L14.31 27.16Q14.03 27.27 13.61 27.27L13.61 27.27L13.61 27.27Q12.38 27.27 11.83 26.66L11.83 26.66L11.83 26.66Q11.28 26.05 11.28 25.19L11.28 25.19L11.28 25.19Q11.28 24.68 11.63 24.19L11.63 24.19L11.63 24.19Q11.98 23.69 12.66 23.24L12.66 23.24L15.89 23.24L15.89 22.48L15.89 22.48Q15.89 20.85 14.14 20.85L14.14 20.85L14.14 20.85Q13.26 20.85 11.93 21.84L11.93 21.84L11.51 21.25L13.51 19.67L13.51 19.67Q14.15 19.53 14.91 19.53L14.91 19.53L14.91 19.53Q16.24 19.53 16.98 20.17L16.98 20.17L16.98 20.17Q17.71 20.82 17.71 22.04L17.71 22.04L17.71 26.01L18.97 26.50ZM14.11 25.94L14.11 25.94Q14.94 25.94 15.89 25.20L15.89 25.20L15.89 23.88L13.45 23.88L13.45 23.88Q13.29 24.09 13.22 24.30L13.22 24.30L13.22 24.30Q13.15 24.51 13.15 24.77L13.15 24.77L13.15 24.77Q13.15 25.26 13.41 25.60L13.41 25.60L13.41 25.60Q13.68 25.94 14.11 25.94L14.11 25.94ZM29.12 26.52L28.80 27.15L26.04 27.15L26.04 22.47L26.04 22.47Q26.04 21.73 25.80 21.43L25.80 21.43L25.80 21.43Q25.56 21.13 24.98 21.13L24.98 21.13L24.98 21.13Q24.54 21.13 24.11 21.28L24.11 21.28L24.11 21.28Q23.67 21.43 23.10 21.87L23.10 21.87L23.10 26.05L24.36 26.52L24.04 27.15L20.03 27.15L20.03 26.64L21.28 25.65L21.28 21.84L20.03 21.10L20.03 20.59L22.53 19.40L23.02 21.18L24.95 19.64L24.95 19.64Q25.27 19.53 25.73 19.53L25.73 19.53L25.73 19.53Q26.71 19.53 27.29 20.11L27.29 20.11L27.29 20.11Q27.86 20.69 27.86 21.69L27.86 21.69L27.86 26.04L29.12 26.52ZM43.69 26.50L43.39 27.13L40.61 27.13L40.61 22.43L40.61 22.43Q40.61 21.70 40.38 21.41L40.38 21.41L40.38 21.41Q40.15 21.11 39.58 21.11L39.58 21.11L39.58 21.11Q39.17 21.11 38.77 21.27L38.77 21.27L38.77 21.27Q38.36 21.42 37.83 21.85L37.83 21.85L37.83 26.04L39.07 26.50L38.77 27.13L36.01 27.13L36.01 22.43L36.01 22.43Q36.01 21.70 35.78 21.41L35.78 21.41L35.78 21.41Q35.55 21.11 34.97 21.11L34.97 21.11L34.97 21.11Q34.57 21.11 34.16 21.27L34.16 21.27L34.16 21.27Q33.75 21.42 33.24 21.85L33.24 21.85L33.24 26.05L34.47 26.52L34.16 27.15L30.17 27.15L30.17 26.64L31.42 25.65L31.42 21.84L30.17 21.10L30.17 20.59L32.66 19.40L33.14 21.17L34.96 19.64L34.96 19.64Q35.28 19.53 35.73 19.53L35.73 19.53L35.73 19.53Q36.54 19.53 37.08 19.96L37.08 19.96L37.08 19.96Q37.62 20.38 37.77 21.14L37.77 21.14L39.56 19.64L39.56 19.64Q39.89 19.53 40.33 19.53L40.33 19.53L40.33 19.53Q41.30 19.53 41.87 20.11L41.87 20.11L41.87 20.11Q42.43 20.69 42.43 21.69L42.43 21.69L42.43 26.04L43.69 26.50ZM49.24 19.53L49.24 19.53Q50.19 19.53 50.94 20.01L50.94 20.01L50.94 20.01Q51.69 20.50 52.11 21.32L52.11 21.32L52.11 21.32Q52.53 22.15 52.53 23.16L52.53 23.16L52.53 23.16Q52.53 24.25 51.86 25.19L51.86 25.19L51.86 25.19Q51.20 26.14 50.19 26.71L50.19 26.71L50.19 26.71Q49.18 27.27 48.24 27.27L48.24 27.27L48.24 27.27Q47.31 27.27 46.56 26.79L46.56 26.79L46.56 26.79Q45.81 26.31 45.38 25.48L45.38 25.48L45.38 25.48Q44.95 24.65 44.95 23.65L44.95 23.65L44.95 23.65Q44.95 22.55 45.62 21.61L45.62 21.61L45.62 21.61Q46.28 20.66 47.29 20.10L47.29 20.10L47.29 20.10Q48.30 19.53 49.24 19.53L49.24 19.53ZM48.43 20.80L48.43 20.80Q46.91 20.80 46.91 22.97L46.91 22.97L46.91 22.97Q46.91 24.28 47.47 25.14L47.47 25.14L47.47 25.14Q48.02 26.01 49.06 26.01L49.06 26.01L49.06 26.01Q49.80 26.01 50.18 25.45L50.18 25.45L50.18 25.45Q50.55 24.89 50.55 23.81L50.55 23.81L50.55 23.81Q50.55 22.53 50.00 21.66L50.00 21.66L50.00 21.66Q49.45 20.80 48.43 20.80L48.43 20.80ZM61.74 19.67L61.74 20.17L58.20 27.13L55.20 30.83L54.60 30.35L54.60 30.35Q55.37 29.50 55.78 28.85L55.78 28.85L55.78 28.85Q56.20 28.21 56.36 27.57L56.36 27.57L56.36 27.57Q56.53 26.92 56.55 26.05L56.55 26.05L54.82 21.85L53.51 21.08L53.51 20.58L56.04 19.40L56.57 21.52L58.25 25.59L60.17 21.66L58.28 20.30L58.59 19.67L61.74 19.67Z"></path></g><defs data-v-423bf9ae=""><linearGradient data-v-423bf9ae="" gradientTransform="rotate(25)" id="abd69ea7-1c12-4cdc-9eda-ec69d94f8f13" x1="0%" y1="0%" x2="100%" y2="0%"><stop data-v-423bf9ae="" offset="0%" style="stop-color: rgb(81, 164, 251); stop-opacity: 1;"></stop><stop data-v-423bf9ae="" offset="100%" style="stop-color: rgb(81, 164, 251); stop-opacity: 1;"></stop></linearGradient></defs><g data-v-423bf9ae="" id="2b860a9f-87e9-4fe5-b73c-5e18028b8f9d" transform="matrix(2.994410458179972,0,0,2.994410458179972,0.08943266912044834,-1.9385669710569857)" stroke="none" fill="url(#abd69ea7-1c12-4cdc-9eda-ec69d94f8f13)"><path d="M17.572 23.933l4.106 7.095L32 13.189h-8.981V7.582L11.51.972 0 7.582v13.222l11.51 6.611 6.062-3.482zm10.96-8.744l-6.855 11.846-6.855-11.846h13.71z"></path></g><!----></svg>